<svg width="591" height="402" viewBox="0 0 591 402" fill="none" xmlns="http://www.w3.org/2000/svg">
<g clip-path="url(#clip0_131_661)">
<path d="M452.484 397.454C444.917 390.18 440.321 378.689 441.527 367.502C442.732 356.316 450.197 346.032 459.88 343.657C469.564 341.281 480.602 347.857 483.543 358.619C485.162 337.87 487.027 316.252 496.723 298.582C505.503 282.583 520.709 271.135 537.189 269.087C553.669 267.039 571.02 274.774 581.298 289.573C591.576 304.372 594.093 325.887 586.894 342.877C581.592 355.394 571.822 364.709 561.586 372.287C528.509 396.568 488.837 406.442 449.87 400.092L452.484 397.454Z" fill="#F2F2F2"/>
<path d="M565.001 275.203C551.403 287.804 538.928 301.898 527.757 317.28C510.275 341.27 496.127 368.168 485.809 397.035C485.053 399.141 488.059 400.058 488.806 397.976C505.689 351.06 532.642 309.708 567.199 277.704C568.751 276.266 566.54 273.777 565.001 275.203Z" fill="white"/>
<path d="M190.252 395.478C200.645 385.487 206.957 369.704 205.302 354.339C203.647 338.974 193.393 324.849 180.093 321.587C166.793 318.324 151.632 327.356 147.592 342.137C145.369 313.639 142.807 283.946 129.489 259.677C117.431 237.702 96.5451 221.978 73.9098 219.165C51.2744 216.352 27.4423 226.977 13.3254 247.303C-0.791462 267.63 -4.24791 297.18 5.63916 320.517C12.9226 337.708 26.3413 350.502 40.4008 360.91C85.2553 394.117 140.897 407.966 193.842 399.101" fill="#F2F2F2"/>
<path d="M35.7091 227.566C54.3861 244.874 71.5203 264.231 86.8638 285.358C102.21 306.464 115.72 329.213 127.205 353.287C133.625 366.791 139.392 380.683 144.481 394.903C145.518 397.795 141.39 399.054 140.364 396.194C131.351 371.125 120.2 347.122 107.071 324.528C94.0065 302.016 79.0531 280.999 62.4211 261.772C53.014 250.903 43.0888 240.63 32.6903 231C30.5589 229.026 33.5953 225.607 35.7091 227.566Z" fill="white"/>
<path d="M424.229 401.12H176.281V111.68C176.281 50.0993 220.315 0 274.441 0H326.069C380.195 0 424.229 50.0993 424.229 111.68V401.12Z" fill="#F2F2F2"/>
<path d="M372.602 401.12H176.281V111.68C176.227 88.0835 182.794 65.0836 195.027 46.0288C195.478 45.3295 195.928 44.6392 196.392 43.9566C202.309 35.1273 209.35 27.3516 217.283 20.8859C217.731 20.515 218.181 20.1504 218.638 19.7859C225.276 14.5593 232.457 10.2866 240.017 7.06519C240.466 6.87159 240.923 6.67762 241.38 6.49156C248.218 3.71547 255.305 1.81386 262.513 0.821842C262.959 0.752399 263.418 0.698059 263.877 0.643719C270.9 -0.210667 277.984 -0.210667 285.007 0.643719C285.465 0.698059 285.923 0.752392 286.375 0.822585C293.581 1.81467 300.667 3.71604 307.502 6.4916C307.959 6.67765 308.417 6.87162 308.867 7.06559C316.334 10.2464 323.43 14.4553 329.998 19.5983C330.454 19.955 330.911 20.3195 331.361 20.684C335.808 24.2955 339.984 28.3188 343.849 32.713C346.948 36.2376 349.835 39.9947 352.493 43.9589C352.955 44.6393 353.405 45.3295 353.855 46.0277C366.088 65.0827 372.656 88.083 372.602 111.68V401.12Z" fill="#CCCCCC"/>
<path d="M356.638 271.664C362.641 271.664 367.507 266.128 367.507 259.298C367.507 252.469 362.641 246.932 356.638 246.932C350.635 246.932 345.769 252.469 345.769 259.298C345.769 266.128 350.635 271.664 356.638 271.664Z" fill="#3F3D56"/>
<path d="M403.917 392.451H395.589L391.627 355.903L403.919 355.904L403.917 392.451Z" fill="#FFB8B8"/>
<path d="M389.64 389.743H405.701V401.249H379.527C379.527 399.738 379.789 398.242 380.297 396.846C380.805 395.45 381.55 394.181 382.489 393.113C383.428 392.045 384.543 391.197 385.77 390.619C386.997 390.041 388.312 389.743 389.64 389.743Z" fill="#2F2E41"/>
<path d="M445.355 392.451H437.027L433.064 355.903L445.357 355.904L445.355 392.451Z" fill="#FFB8B8"/>
<path d="M431.078 389.743H447.139V401.249H420.965C420.965 399.738 421.227 398.242 421.735 396.846C422.243 395.45 422.988 394.181 423.927 393.113C424.866 392.045 425.981 391.197 427.208 390.619C428.435 390.041 429.75 389.743 431.078 389.743Z" fill="#2F2E41"/>
<path d="M362.139 261.748C361.54 260.743 361.141 259.602 360.972 258.404C360.802 257.205 360.866 255.979 361.158 254.812C361.45 253.644 361.964 252.564 362.663 251.647C363.361 250.73 364.229 249.998 365.203 249.503L393.514 160.726L407.444 169.376L375.119 254.214C375.741 256.131 375.724 258.241 375.07 260.145C374.415 262.048 373.17 263.612 371.57 264.541C369.97 265.469 368.126 265.698 366.388 265.183C364.65 264.668 363.138 263.446 362.139 261.748Z" fill="#FFB8B8"/>
<path d="M441.101 278.43C440.175 277.826 439.378 276.999 438.763 276.006C438.149 275.013 437.734 273.88 437.547 272.685C437.359 271.49 437.404 270.263 437.679 269.09C437.954 267.917 438.451 266.827 439.136 265.896L430.365 171.985L446.219 172.809L449.864 265.183C451.162 266.596 451.959 268.501 452.105 270.538C452.25 272.575 451.734 274.602 450.654 276.235C449.574 277.867 448.005 278.993 446.244 279.397C444.483 279.802 442.653 279.457 441.101 278.43Z" fill="#FFB8B8"/>
<path d="M415.81 144.282C425.024 144.282 432.494 135.784 432.494 125.3C432.494 114.816 425.024 106.317 415.81 106.317C406.595 106.317 399.125 114.816 399.125 125.3C399.125 135.784 406.595 144.282 415.81 144.282Z" fill="#FFB8B8"/>
<path d="M440.994 257.071H390.694L390.754 256.626C390.845 255.96 399.719 189.82 393.174 168.182C392.517 166.055 392.575 163.728 393.336 161.647C394.097 159.566 395.508 157.879 397.297 156.911C406.652 151.898 424.61 145.726 439.767 160.705C441.998 162.945 443.739 165.745 444.855 168.884C445.97 172.022 446.428 175.412 446.193 178.787L440.994 257.071Z" fill="#3F3D56"/>
<path d="M400.355 199.594L377.709 194.367L388.324 165.748C388.959 162.976 390.535 160.604 392.705 159.152C394.875 157.7 397.463 157.287 399.901 158.003C402.339 158.719 404.428 160.506 405.709 162.971C406.991 165.437 407.36 168.381 406.737 171.156L400.355 199.594Z" fill="#3F3D56"/>
<path d="M429.358 209.3L427.997 173.793C426.965 167.118 430.323 160.808 435.488 159.777C440.654 158.749 445.699 163.379 446.736 170.103L451.853 203.28L429.358 209.3Z" fill="#3F3D56"/>
<path d="M439.321 252.821C447.415 287.891 448.298 332.48 446.114 381.117L435.245 379.571L415.545 286.827L404.676 381.117L392.449 380.344C388.796 329.312 385.239 285.501 391.09 256.685L439.321 252.821Z" fill="#2F2E41"/>
<path d="M426.803 139.97C423.691 143.742 417.91 141.717 417.505 136.564C417.473 136.164 417.475 135.761 417.512 135.361C417.721 133.079 418.88 131.006 418.602 128.596C418.54 127.996 418.343 127.424 418.032 126.935C415.551 123.156 409.729 128.625 407.388 125.205C405.953 123.107 407.64 119.804 406.539 117.46C405.085 114.366 400.779 115.892 398.079 114.198C395.074 112.312 395.254 107.068 397.232 103.878C399.643 99.9873 403.872 97.9114 408.048 97.6123C412.225 97.3131 416.372 98.5975 420.271 100.326C424.701 102.29 429.094 105.005 431.82 109.436C435.135 114.826 435.454 122.071 433.796 128.373C432.787 132.207 429.345 136.89 426.803 139.97Z" fill="#2F2E41"/>
<path d="M570.608 401.617H69.0774C68.8633 401.617 68.6582 401.519 68.507 401.347C68.3558 401.174 68.2709 400.941 68.2709 400.697C68.2709 400.453 68.3558 400.22 68.507 400.047C68.6582 399.875 68.8633 399.778 69.0774 399.777H570.608C570.822 399.778 571.027 399.875 571.179 400.047C571.33 400.22 571.415 400.453 571.415 400.697C571.415 400.941 571.33 401.174 571.179 401.347C571.027 401.519 570.822 401.617 570.608 401.617Z" fill="white"/>
<path d="M318.597 317.264H230.286C229.123 317.271 228.005 316.753 227.177 315.823C226.35 314.894 225.88 313.629 225.871 312.305V88.0418C225.88 86.7186 226.35 85.4535 227.177 84.524C228.005 83.5944 229.123 83.0764 230.286 83.0836H318.597C319.76 83.0764 320.878 83.5944 321.705 84.524C322.533 85.4535 323.003 86.7186 323.012 88.0418V312.305C323.003 313.629 322.533 314.894 321.705 315.823C320.878 316.753 319.76 317.271 318.597 317.264Z" fill="white"/>
<path d="M323.012 155.648H225.871V157.194H323.012V155.648Z" fill="#CCCCCC"/>
<path d="M323.352 243.841H226.21V245.387H323.352V243.841Z" fill="#CCCCCC"/>
<path d="M257.798 83.0837H256.44V318.037H257.798V83.0837Z" fill="#CCCCCC"/>
<path d="M291.764 83.0837H290.405V318.037H291.764V83.0837Z" fill="#CCCCCC"/>
</g>
<defs>
<clipPath id="clip0_131_661">
<rect width="591" height="402" fill="white"/>
</clipPath>
</defs>
</svg>
