<svg width="505" height="578" viewBox="0 0 505 578" fill="none" xmlns="http://www.w3.org/2000/svg">
<g clip-path="url(#clip0_131_226)">
<path d="M242.346 542.235L241.702 527.733C241.635 527.698 241.568 527.662 241.501 527.627C234.605 524.001 226.701 530.565 228.904 538.051C230.976 545.094 232.369 552.687 236.162 558.852C238.404 562.432 241.421 565.462 244.989 567.715C248.558 569.969 252.587 571.389 256.778 571.87L265.539 577.246C266.742 570.529 266.477 563.632 264.762 557.028C263.048 550.424 259.926 544.271 255.61 538.993C253.16 536.056 250.35 533.44 247.248 531.207C245.149 536.751 242.346 542.235 242.346 542.235Z" fill="white"/>
<path d="M163.901 395.072C147.032 377.639 122.587 367.641 96.834 367.641L95.8406 367.644C78.8776 367.651 62.2172 363.142 47.5635 354.579L46.0386 353.689L47.2667 352.421C53.9157 345.528 59.4677 337.651 63.728 329.067C60.7022 331.894 57.0934 334.02 53.1569 335.294C49.2204 336.568 45.0524 336.96 40.9481 336.441C36.615 335.924 32.455 334.429 28.7804 332.071C25.1057 329.712 22.0117 326.55 19.7304 322.823C10.7294 308.188 7.62939e-06 287.422 7.62939e-06 271.603C0.0140192 258.232 2.80793 245.01 8.20367 232.781C13.5994 220.551 21.4786 209.582 31.339 200.573C37.5815 194.933 42.5677 188.038 45.9724 180.337C49.3771 172.636 51.124 164.302 51.0991 155.879L51.0941 154.681C51.0924 143.591 52.4447 132.544 55.1209 121.784L55.3926 120.697L56.5083 120.736C63.7025 120.981 70.9005 120.377 77.9538 118.936C71.3378 118.122 64.8657 116.397 58.7208 113.81L57.5206 113.323L57.9279 112.091C86.0049 94.6704 149.383 103.692 186.169 19.3518C215.998 -49.0362 321.244 80.0599 321.244 154.681C321.244 162.295 313.724 172.357 319.353 177.389C380.206 231.792 338.219 266.726 324.981 301.878C321.84 310.218 328.65 319.374 328.65 328.397C328.65 329.928 328.611 331.508 328.534 333.094L328.417 335.532L326.388 334.179C322.374 331.544 318.653 328.486 315.29 325.057C318.779 333.105 320.424 341.834 320.102 350.602C319.781 359.371 317.502 367.956 313.432 375.725C307.055 387.786 300.885 396.422 295.095 401.388C276.545 417.295 252.633 425.5 228.246 424.326C203.86 423.152 180.843 412.687 163.901 395.072Z" fill="white"/>
<path d="M265.782 576.53C266.196 576.53 266.597 576.379 266.91 576.107C267.223 575.834 267.428 575.458 267.486 575.046C267.559 574.531 274.732 522.694 268.29 453.8C262.341 390.175 243.236 298.532 186.006 223.268C185.869 223.087 185.697 222.935 185.502 222.821C185.306 222.707 185.09 222.632 184.865 222.602C184.641 222.571 184.412 222.585 184.193 222.643C183.974 222.701 183.769 222.802 183.589 222.939C183.408 223.077 183.257 223.249 183.143 223.445C183.029 223.641 182.955 223.858 182.925 224.083C182.895 224.308 182.909 224.537 182.967 224.756C183.025 224.976 183.126 225.181 183.264 225.362C240 299.976 258.951 390.946 264.858 454.122C271.262 522.615 264.146 574.048 264.073 574.559C264.039 574.805 264.057 575.054 264.127 575.292C264.197 575.529 264.317 575.748 264.479 575.935C264.641 576.122 264.841 576.272 265.066 576.375C265.291 576.477 265.535 576.53 265.782 576.53Z" fill="#3F3D56"/>
<path d="M219.078 329.432C219.442 329.432 219.797 329.317 220.092 329.103C220.387 328.888 220.606 328.586 220.719 328.239C220.831 327.892 220.831 327.519 220.719 327.172C220.607 326.824 220.388 326.522 220.093 326.308C219.885 326.156 198.949 311.039 167.649 299.555C138.714 288.94 94.7154 279.317 49.4192 293.763C49.2032 293.832 49.0028 293.942 48.8294 294.088C48.6561 294.234 48.5132 294.413 48.409 294.615C48.3047 294.817 48.2412 295.037 48.222 295.263C48.2027 295.489 48.2282 295.717 48.2969 295.933C48.3656 296.15 48.4762 296.35 48.6224 296.524C48.7685 296.697 48.9474 296.84 49.1487 296.944C49.35 297.048 49.5699 297.112 49.7957 297.131C50.0214 297.149 50.2487 297.124 50.4645 297.054C94.8327 282.905 138.034 292.369 166.464 302.799C197.317 314.119 217.862 328.953 218.066 329.102C218.36 329.317 218.715 329.432 219.078 329.432Z" fill="#3F3D56"/>
<path d="M297.965 132.548C297.991 132.184 297.902 131.821 297.71 131.511C297.518 131.201 297.233 130.96 296.896 130.822C296.559 130.685 296.186 130.657 295.833 130.745C295.479 130.832 295.163 131.029 294.928 131.308C294.762 131.505 278.208 151.342 264.524 181.798C251.874 209.953 239.127 253.236 250.244 299.549C250.351 299.994 250.63 300.379 251.02 300.618C251.41 300.857 251.878 300.931 252.323 300.824C252.767 300.717 253.151 300.437 253.39 300.047C253.628 299.656 253.702 299.186 253.595 298.741C242.707 253.377 255.238 210.88 267.667 183.217C281.156 153.195 297.401 133.728 297.563 133.535C297.798 133.257 297.939 132.911 297.965 132.548Z" fill="#3F3D56"/>
<path d="M295.632 221.607C297.086 233.364 305.216 243.058 317.039 243.058C322.716 243.058 328.161 240.798 332.176 236.775C336.19 232.752 338.446 227.296 338.446 221.607C338.446 209.76 328.811 201.251 317.039 200.156C304.548 198.993 293.765 206.512 295.632 221.607Z" fill="#2F2E41"/>
<path d="M326.954 567.082L335.106 567.081L338.984 535.572L326.952 535.573L326.954 567.082Z" fill="#FFB6B6"/>
<path d="M326.667 575.603L351.736 575.602V575.285C351.735 572.692 350.707 570.205 348.878 568.371C347.048 566.538 344.566 565.508 341.978 565.507L337.399 562.026L328.855 565.508L326.667 565.508L326.667 575.603Z" fill="#2F2E41"/>
<path d="M294.843 567.082L302.995 567.081L306.873 535.572L294.842 535.573L294.843 567.082Z" fill="#FFB6B6"/>
<path d="M294.557 575.603L319.625 575.602V575.285C319.625 572.692 318.597 570.205 316.767 568.371C314.937 566.538 312.456 565.508 309.868 565.507L305.288 562.026L296.745 565.508L294.556 565.508L294.557 575.603Z" fill="#2F2E41"/>
<path d="M355.007 369.737L360.77 389.538L353.98 473.4C353.98 473.4 357.477 478.644 355.007 478.644C352.537 478.644 349.369 479.806 351.365 482.938C353.36 486.069 346.54 497.311 346.54 497.311L336.893 557.024L324.601 556.842C324.601 556.842 318.352 553.353 321.859 549.825C325.366 546.298 327.836 546.298 324.543 542.998C321.25 539.697 321.25 540.691 321.25 538.132C321.25 535.572 317.95 504.292 325.775 492.293L323.417 443.371L317.864 491.357L306.429 555.373L294.588 555.276C294.588 555.276 289.119 549.993 289.129 546.083C289.139 542.173 292.508 541.848 290 539.535C287.493 537.222 287.493 501.693 294.903 481.944C294.903 481.944 299.094 470.909 294.893 467.128C290.692 463.347 294.888 459.021 294.888 459.021C294.888 459.021 301.542 456.611 294.882 449.666C288.222 442.721 294.846 393.604 294.846 393.604C294.846 393.604 287.565 373.778 294.939 365.982C302.313 358.186 355.007 369.737 355.007 369.737Z" fill="#2F2E41"/>
<path d="M252.357 403.852L262.64 378.95L270.741 383.46L265.849 408.792C266.339 410.397 266.372 412.107 265.946 413.73C265.519 415.353 264.649 416.824 263.434 417.979C262.218 419.133 260.705 419.925 259.065 420.266C257.425 420.606 255.723 420.481 254.15 419.905C252.577 419.329 251.195 418.325 250.161 417.005C249.126 415.686 248.479 414.103 248.293 412.435C248.106 410.767 248.388 409.08 249.106 407.564C249.824 406.048 250.95 404.762 252.357 403.852Z" fill="#FFB8B8"/>
<path d="M424.908 206.936L409.262 228.856L402.391 222.623L412.884 199.061C412.77 197.387 413.124 195.714 413.906 194.23C414.689 192.746 415.869 191.51 417.314 190.662C418.759 189.813 420.411 189.385 422.086 189.426C423.76 189.467 425.39 189.975 426.792 190.893C428.194 191.811 429.312 193.103 430.022 194.624C430.731 196.144 431.003 197.832 430.808 199.499C430.612 201.166 429.956 202.745 428.914 204.059C427.872 205.373 426.485 206.369 424.908 206.936Z" fill="#FFB8B8"/>
<path d="M356.559 371.767C366.708 387.54 315.696 407.558 296.122 399.521C292.695 398.114 280.905 393.466 288.964 387.022C297.023 380.578 288.03 379.671 287.817 375.477C287.675 372.672 289.842 366.52 287.581 366.784C285.32 367.047 282.674 363.169 287.598 361.5C292.522 359.831 287.651 358.309 287.694 356.725C288.165 339.435 301.402 311.935 301.402 311.935L277.549 373.036C277.549 373.036 277.725 383.607 274.684 380.376C271.642 377.146 271.863 387.601 271.863 387.601C271.863 387.601 267.34 390.764 269.941 392.525C272.542 394.285 267.141 399.698 267.141 399.698L254.538 398.795C254.538 398.795 254.735 389.414 256.887 387.339C259.039 385.265 257.982 382 257.982 382C257.982 382 263.585 377.03 259.829 372.995C254.998 367.805 272.61 280.152 278.688 281.02C279.548 276.829 281.547 272.958 284.464 269.835C287.382 266.711 291.105 264.457 295.221 263.321L308.833 259.566L311.25 249.956H330.416L333.755 256.27L348.326 262.86C351.071 258.979 353.122 254.89 364.361 253.564C364.361 253.564 394.646 225.952 393.167 223.796C391.688 221.64 396.383 216.593 396.383 216.593C396.383 216.593 400.392 215.278 398.13 214.576C395.868 213.874 400.144 212.251 400.144 212.251C400.144 212.251 404.104 211.208 402.236 209.835C400.369 208.461 408.47 207.559 408.47 207.559L418.982 216.154L416.857 219.764C416.857 219.764 418.153 224.679 416.462 222.885C414.772 221.09 414.453 226.298 414.453 226.298C414.453 226.298 413.59 232.001 408.47 233.719C403.351 235.437 399.468 251.76 399.468 251.76C387.394 267.492 373.145 279.764 356.259 287.842C362.84 295.412 356.559 371.767 356.559 371.767Z" fill="#3F3D56"/>
<path d="M319.405 244.332C329.889 244.332 338.388 235.816 338.388 225.31C338.388 214.804 329.889 206.288 319.405 206.288C308.921 206.288 300.423 214.804 300.423 225.31C300.423 235.816 308.921 244.332 319.405 244.332Z" fill="#FFB8B8"/>
<path d="M299.749 227.382C300.35 231.516 303.866 237.283 303.042 237.283C302.219 237.283 296.365 220.243 302.219 219.132C306.465 218.326 307.414 219.033 311.383 217.308L310.823 217.836C313.449 219.751 317.105 218.571 320.102 217.325C323.107 216.087 326.754 214.908 329.389 216.813C331.044 218.01 331.744 220.089 332.773 221.854C333.802 223.628 335.704 225.303 337.664 224.759C339.236 224.321 340.142 222.556 340.134 220.922C340.126 219.289 338.003 217.735 338.718 216.269C340.836 211.925 338.931 208.965 334.313 206.921C332.633 206.665 330.953 206.404 329.274 206.137C330.154 204.916 331.221 203.841 332.436 202.953C331.922 201.634 331.035 200.495 329.883 199.677C328.541 198.877 326.878 198.935 325.322 199.017C321.847 199.199 318.376 199.38 314.907 199.562C312.338 199.694 309.678 199.85 307.381 201.03C304.516 202.507 302.639 205.386 301.272 208.315C298.209 214.899 298.695 220.196 299.749 227.382Z" fill="#2F2E41"/>
<path d="M220.782 577.746L407.475 578C407.735 578 407.984 577.897 408.168 577.712C408.352 577.528 408.455 577.278 408.455 577.018C408.455 576.757 408.352 576.507 408.168 576.323C407.984 576.139 407.735 576.035 407.475 576.035L220.782 575.782C220.522 575.782 220.272 575.885 220.088 576.069C219.904 576.254 219.801 576.504 219.801 576.764C219.801 577.025 219.904 577.275 220.088 577.459C220.272 577.643 220.522 577.746 220.782 577.746Z" fill="white"/>
<path d="M153.259 492.113C153.603 489.743 151.126 487.42 147.726 486.924C144.325 486.428 141.29 487.948 140.945 490.318C140.601 492.688 143.079 495.012 146.479 495.508C149.88 496.003 152.915 494.484 153.259 492.113Z" fill="#E6E6E6"/>
<path d="M193.744 488.155C194.089 485.784 191.611 483.461 188.211 482.965C184.81 482.469 181.775 483.989 181.431 486.359C181.086 488.73 183.564 491.053 186.964 491.549C190.365 492.045 193.4 490.525 193.744 488.155Z" fill="#3F3D56"/>
<path d="M142.173 459.269C142.517 456.899 140.04 454.576 136.64 454.08C133.239 453.584 130.204 455.104 129.859 457.474C129.515 459.845 131.993 462.168 135.393 462.664C138.794 463.16 141.829 461.64 142.173 459.269Z" fill="#FF6584"/>
<path d="M124.581 445.816C124.598 443.64 123.387 441.867 121.876 441.855C120.365 441.844 119.127 443.599 119.111 445.775C119.094 447.951 120.306 449.724 121.816 449.736C123.327 449.747 124.565 447.992 124.581 445.816Z" fill="#E6E6E6"/>
<path d="M118.616 420.758C118.632 418.582 117.421 416.809 115.91 416.797C114.4 416.786 113.162 418.54 113.145 420.717C113.129 422.893 114.34 424.666 115.851 424.677C117.361 424.689 118.599 422.934 118.616 420.758Z" fill="#3F3D56"/>
<path d="M165.007 464.859C165.024 462.682 163.812 460.909 162.302 460.898C160.791 460.886 159.553 462.641 159.537 464.817C159.52 466.993 160.731 468.767 162.242 468.778C163.753 468.789 164.991 467.035 165.007 464.859Z" fill="#E6E6E6"/>
<path d="M145.443 474.647C145.459 472.471 144.248 470.698 142.737 470.686C141.227 470.675 139.989 472.43 139.972 474.606C139.956 476.782 141.167 478.555 142.678 478.567C144.189 478.578 145.427 476.823 145.443 474.647Z" fill="#FF6584"/>
<path d="M172.677 492.739C172.693 490.563 171.482 488.789 169.971 488.778C168.461 488.766 167.223 490.521 167.206 492.697C167.19 494.873 168.401 496.647 169.912 496.658C171.423 496.67 172.661 494.915 172.677 492.739Z" fill="#3F3D56"/>
<path d="M464.483 365.055C464.827 362.685 462.35 360.361 458.949 359.866C455.549 359.37 452.513 360.89 452.169 363.26C451.825 365.63 454.303 367.954 457.703 368.45C461.103 368.945 464.139 367.426 464.483 365.055Z" fill="#E6E6E6"/>
<path d="M504.968 361.097C505.312 358.726 502.835 356.403 499.434 355.907C496.034 355.411 492.998 356.931 492.654 359.301C492.31 361.672 494.788 363.995 498.188 364.491C501.588 364.987 504.624 363.467 504.968 361.097Z" fill="#3F3D56"/>
<path d="M453.396 332.211C453.741 329.841 451.263 327.518 447.863 327.022C444.462 326.526 441.427 328.046 441.083 330.416C440.738 332.786 443.216 335.11 446.616 335.606C450.017 336.101 453.052 334.582 453.396 332.211Z" fill="#FF6584"/>
<path d="M435.805 318.758C435.822 316.582 434.61 314.809 433.1 314.797C431.589 314.786 430.351 316.54 430.335 318.717C430.318 320.893 431.53 322.666 433.04 322.677C434.551 322.689 435.789 320.934 435.805 318.758Z" fill="#E6E6E6"/>
<path d="M429.839 293.7C429.856 291.524 428.645 289.75 427.134 289.739C425.623 289.728 424.385 291.482 424.369 293.658C424.352 295.835 425.564 297.608 427.074 297.619C428.585 297.631 429.823 295.876 429.839 293.7Z" fill="#3F3D56"/>
<path d="M476.231 337.8C476.247 335.624 475.036 333.851 473.525 333.84C472.015 333.828 470.777 335.583 470.76 337.759C470.744 339.935 471.955 341.708 473.466 341.72C474.977 341.731 476.215 339.977 476.231 337.8Z" fill="#E6E6E6"/>
<path d="M456.667 347.589C456.683 345.413 455.472 343.64 453.961 343.628C452.451 343.617 451.213 345.371 451.196 347.547C451.18 349.724 452.391 351.497 453.902 351.508C455.412 351.52 456.65 349.765 456.667 347.589Z" fill="#FF6584"/>
<path d="M483.901 365.68C483.917 363.504 482.706 361.731 481.195 361.72C479.685 361.708 478.447 363.463 478.43 365.639C478.414 367.815 479.625 369.589 481.136 369.6C482.646 369.611 483.884 367.857 483.901 365.68Z" fill="#3F3D56"/>
<path d="M313.811 129.915C314.155 127.545 311.678 125.221 308.277 124.726C304.877 124.23 301.842 125.749 301.497 128.12C301.153 130.49 303.631 132.814 307.031 133.309C310.432 133.805 313.467 132.285 313.811 129.915Z" fill="white"/>
<path d="M354.296 125.957C354.64 123.586 352.163 121.263 348.763 120.767C345.362 120.271 342.327 121.791 341.982 124.161C341.638 126.532 344.116 128.855 347.516 129.351C350.917 129.847 353.952 128.327 354.296 125.957Z" fill="#3F3D56"/>
<path d="M302.725 97.0712C303.069 94.7009 300.592 92.3774 297.192 91.8816C293.791 91.3859 290.756 92.9055 290.411 95.2759C290.067 97.6463 292.545 99.9698 295.945 100.466C299.346 100.961 302.381 99.4416 302.725 97.0712Z" fill="#FF6584"/>
<path d="M285.133 83.618C285.15 81.4419 283.939 79.6685 282.428 79.6571C280.917 79.6456 279.679 81.4004 279.663 83.5765C279.646 85.7526 280.858 87.526 282.368 87.5375C283.879 87.5489 285.117 85.7941 285.133 83.618Z" fill="#E6E6E6"/>
<path d="M279.168 58.5598C279.184 56.3837 277.973 54.6103 276.462 54.5988C274.951 54.5874 273.714 56.3422 273.697 58.5183C273.681 60.6944 274.892 62.4678 276.403 62.4792C277.913 62.4907 279.151 60.7359 279.168 58.5598Z" fill="#3F3D56"/>
<path d="M325.559 102.66C325.576 100.484 324.364 98.711 322.854 98.6996C321.343 98.6881 320.105 100.443 320.089 102.619C320.072 104.795 321.283 106.568 322.794 106.58C324.305 106.591 325.543 104.837 325.559 102.66Z" fill="#E6E6E6"/>
<path d="M305.995 112.449C306.011 110.273 304.8 108.5 303.289 108.488C301.779 108.477 300.541 110.231 300.524 112.407C300.508 114.584 301.719 116.357 303.23 116.368C304.741 116.38 305.979 114.625 305.995 112.449Z" fill="#FF6584"/>
<path d="M333.229 130.54C333.245 128.364 332.034 126.591 330.523 126.58C329.013 126.568 327.775 128.323 327.758 130.499C327.742 132.675 328.953 134.448 330.464 134.46C331.975 134.471 333.213 132.717 333.229 130.54Z" fill="#3F3D56"/>
</g>
<defs>
<clipPath id="clip0_131_226">
<rect width="505" height="578" fill="white"/>
</clipPath>
</defs>
</svg>
