<svg width="20" height="20" viewBox="0 0 20 20" fill="none" xmlns="http://www.w3.org/2000/svg">
<path d="M10 1C10.132 1 10.263 1 10.393 1C9.10834 2.19371 8.28259 3.79985 8.05929 5.53923C7.83598 7.2786 8.22925 9.04124 9.17073 10.5207C10.1122 12.0002 11.5424 13.103 13.2126 13.6375C14.8828 14.1719 16.6875 14.1042 18.313 13.446C17.6877 14.9505 16.6658 16.257 15.3562 17.2263C14.0466 18.1955 12.4984 18.791 10.8769 18.9494C9.25537 19.1077 7.62126 18.823 6.14888 18.1254C4.67651 17.4279 3.42111 16.3437 2.51658 14.9886C1.61206 13.6335 1.09235 12.0583 1.01288 10.431C0.933415 8.80366 1.29718 7.1853 2.06537 5.74852C2.83356 4.31174 3.97736 3.11043 5.37476 2.27274C6.77216 1.43505 8.37075 0.992397 10 0.992004V1Z" stroke="#1E1E1E" stroke-width="2" stroke-linecap="round" stroke-linejoin="round"/>
</svg>
